# xmcd
#
# Track frame offsets:
#	150
#	22772
#	45242
#	66062
#	86582
#	106450
#	127772
#	144587
#	166770
#	182495
#
# Disc length: 2776 seconds
#
# Revision: 1
# Processed by: cddbd v1.5.2PL0 Copyright (c) Steve Scherf et al.
# Submitted via: EZCDAudioConverter 8.0.2.1
#
DISCID=6e0ad60a
DTITLE=Various Artist - Top Hit 12. Yêu
DYEAR=2002
DGENRE=
TTITLE0=Lưu Bích, Nguyễn Hưng - Yêu
TTITLE1=Don Hồ, Thanh Hà - Vì đó là em
TTITLE2=Khánh Hà, Lưu Bích - Chiếc bóng mong manh
TTITLE3=Như Loan, Bảo Hân - Hãy sống cùng tình yêu
TTITLE4=Lương Tùng Quang and Như Loan - Trái đắng
TTITLE5=Thế Sơn, Loan Châu - Tình phiêu lãng
TTITLE6=Tu Quyen, Nhu Loan - Khúc hát yêu đời
TTITLE7=Thủy Tiên, Thế Sơn - Xin hãy quên đi
TTITLE8=Don Hồ, Châu Ngọc - Mưa bão trong lòng
TTITLE9=Bảo Hân, Như Loan, Lương Tùng Quang , Loan Châu - Hãy sống cùng tình y
TTITLE9=êu
EXTD=
EXTT0=
EXTT1=
EXTT2=
EXTT3=
EXTT4=
EXTT5=
EXTT6=
EXTT7=
EXTT8=
EXTT9=
PLAYORDER=
